<?xml version="1.0" encoding="UTF-8"?>
<svg width="20px" height="18px" viewBox="0 0 20 18" version="1.1" xmlns="http://www.w3.org/2000/svg" xmlns:xlink="http://www.w3.org/1999/xlink">
    <!-- Generator: Sketch 51.2 (57519) - http://www.bohemiancoding.com/sketch -->
    <title>Group 3 Copy</title>
    <desc>Created with Sketch.</desc>
    <defs>
        <polygon id="path-1" points="0 0 20 0 20 18 0 18"></polygon>
    </defs>
    <g id="UI" stroke="none" stroke-width="1" fill="none" fill-rule="evenodd">
        <g id="dtac-Web_Homepage" transform="translate(-224.000000, -117.000000)">
            <g id="Main-Menu" transform="translate(0.000000, 100.000000)">
                <g id="Group-19" transform="translate(224.000000, 16.000000)">
                    <g id="Group-2">
                        <g id="Group-16">
                            <g id="Group-3-Copy" transform="translate(0.000000, 1.000000)">
                                <mask id="mask-2" fill="white">
                                    <use xlink:href="#path-1"></use>
                                </mask>
                                <g id="Clip-2"></g>
                                <path d="M17.5981606,0.0243313068 C17.0115978,-0.0286634821 16.3284563,0.000698495539 15.5986147,0.154192411 C14.706912,0.338958026 13.5550581,0.849092547 12.8523563,1.30957429 C12.0181119,1.86339371 11.42128,2.6905421 11.0467013,3.44321133 C10.7007295,4.14145348 10.5528051,4.82250813 10.4907013,5.22641436 C10.4523144,5.49091088 10.3946116,5.54772511 10.1082986,5.50475636 C8.79385014,5.27415742 6.80995236,5.50213049 4.96737734,6.22734747 C3.75953225,6.7016747 2.55437669,7.38774237 1.79935126,7.99431786 C1.06877614,8.58418328 0.608376884,9.09980825 0.328665389,9.57986465 C0.104700591,9.97111897 -0.00654829851,10.367625 0.000297787016,10.806145 C0.00812188476,11.4284757 0.255314473,12.0412577 0.719625773,12.3656718 C1.55484821,12.9478983 2.7470451,12.7294739 3.48911187,12.2007195 C3.98227453,11.850763 4.52311529,11.2250903 5.01309941,10.6244827 C5.38498856,10.1661493 5.73560594,9.72953912 5.99453467,9.43257733 C6.5894106,8.7517614 7.60678781,7.59399236 8.62563204,6.93251236 C9.19263462,6.56441342 10.3606257,6.44433964 10.3332414,6.92129274 C10.3173487,7.27101061 10.3237058,7.3538448 10.3237058,7.74104096 C10.3227277,8.90406174 10.5466925,11.127217 11.0995139,12.6604851 C11.7364444,14.4439269 12.4142069,15.6002636 13.3851285,16.5816221 C14.4054397,17.6159753 15.8594994,18.3376116 16.950472,17.8377418 C18.0629609,17.3285622 18.3854605,15.5059711 17.869559,13.5838358 C17.4035362,11.8328593 16.108648,10.0291268 15.3171916,9.08405305 C14.4435822,8.05351925 13.7399024,7.4820349 13.1337794,6.99624934 C12.7301048,6.67517731 12.2076018,6.31042038 11.4982984,5.93659228 C10.9471885,5.6460758 11.227389,4.86810275 12.0689686,4.58952204 C12.5746009,4.4217052 13.1807239,4.21784237 14.2452902,3.97793353 C15.5171951,3.69219135 16.7930121,3.37135804 17.7262802,3.06771222 C18.6260515,2.77218272 19.2854762,2.43487805 19.5947726,2.16799439 C19.912382,1.89108468 20.0084717,1.60916195 19.9994251,1.39288592 C19.9967356,1.26302482 19.9287637,1.06322014 19.8045562,0.900655045 C19.470076,0.466193262 18.8033162,0.130320884 17.5981606,0.0243313068" id="Fill-1" fill="#FFFFFF" mask="url(#mask-2)"></path>
                            </g>
                        </g>
                    </g>
                </g>
            </g>
        </g>
    </g>
</svg>