<?xml version="1.0" encoding="UTF-8"?>
<svg width="37px" height="37px" viewBox="0 0 37 37" version="1.1" xmlns="http://www.w3.org/2000/svg" xmlns:xlink="http://www.w3.org/1999/xlink">
    <!-- Generator: Sketch 51.2 (57519) - http://www.bohemiancoding.com/sketch -->
    <title>icon tw</title>
    <desc>Created with Sketch.</desc>
    <defs></defs>
    <g id="UI" stroke="none" stroke-width="1" fill="none" fill-rule="evenodd">
        <g id="dtac-Web_Homepage" transform="translate(-1060.000000, -638.000000)">
            <g id="Footer" transform="translate(0.000000, 619.000000)">
                <g id="Social" transform="translate(889.000000, 20.000000)">
                    <g id="Icon-Social" transform="translate(128.000000, 0.000000)">
                        <g id="icon-tw" transform="translate(44.000000, 0.000000)">
                            <path d="M25.8569277,14.1244756 C25.8569277,13.9250955 25.8480664,13.7345767 25.8392051,13.5351966 C26.6876782,12.9126876 27.4143079,12.1240285 27.9947256,11.2246026 C27.2237892,11.5701948 26.3930387,11.8050203 25.5201969,11.9002797 C26.4107614,11.3553074 27.0952998,10.4802502 27.4143079,9.43461231 C26.5835575,9.93527792 25.6575476,10.2985928 24.6805851,10.4802502 C23.8941413,9.58968573 22.7776127,9.01812941 21.5392407,9.00040673 C19.1599714,8.96717672 17.230415,10.9742698 17.230415,13.4931052 C17.230415,13.8475587 17.263645,14.1931509 17.3411817,14.5298818 C13.7589857,14.2972717 10.5844113,12.4363906 8.46433614,9.62513108 C8.09215994,10.2985928 7.87505715,11.0872519 7.87505715,11.9268637 C7.87505715,13.5263352 8.63713224,14.9463647 9.79575221,15.7771151 C9.08684515,15.7416698 8.42002945,15.5334283 7.8396118,15.1789748 L7.8396118,15.2410042 C7.8396118,17.4718461 9.32831662,19.3327271 11.3021797,19.775794 C10.9388648,19.8776994 10.5578273,19.9308674 10.1679284,19.9308674 C9.88215026,19.9220061 9.61409478,19.8954221 9.35490063,19.835608 C9.89987293,21.6699051 11.4926985,23.0035365 13.3779482,23.0456278 C11.8981047,24.2662772 10.0483003,25.0017682 8.03013057,24.9929069 C7.68453838,24.9929069 7.33894619,24.9663229 7,24.9242315 C8.90518772,26.2401402 11.171475,27 13.6039123,27 C21.521518,27 25.8569277,20.1036635 25.8569277,14.1244756 Z" id="Fill-1" fill="#FFFFFF"></path>
                            <path d="M35,17.5004971 C35,27.1649953 27.1647727,35 17.5,35 C7.83522727,35 0,27.1649953 0,17.5004971 C0,7.83500469 7.83522727,0 17.5,0 C27.1647727,0 35,7.83500469 35,17.5004971 Z" id="Stroke-1-Copy" stroke="#FFFFFF" stroke-width="2"></path>
                        </g>
                    </g>
                </g>
            </g>
        </g>
    </g>
</svg>