<?xml version="1.0" encoding="UTF-8"?>
<svg width="38px" height="38px" viewBox="0 0 38 38" version="1.1" xmlns="http://www.w3.org/2000/svg" xmlns:xlink="http://www.w3.org/1999/xlink">
    <!-- Generator: Sketch 51.2 (57519) - http://www.bohemiancoding.com/sketch -->
    <title>icon Profile Pic</title>
    <desc>Created with Sketch.</desc>
    <defs></defs>
    <g id="UI" stroke="none" stroke-width="1" fill="none" fill-rule="evenodd">
        <g id="dtac-Web_Homepage" transform="translate(-39.000000, -31.000000)">
            <g id="Header" transform="translate(40.000000, 0.000000)">
                <g id="icon-Profile-Pic" transform="translate(0.000000, 32.000000)">
                    <circle id="Oval-3" stroke="#4A4A4A" fill-rule="nonzero" cx="18" cy="18" r="18"></circle>
                    <path d="M25.4199071,28.0285263 L21.4843161,26.0682632 C21.1141316,25.8819868 20.8829594,25.5109737 20.8829594,25.0963421 L20.8829594,23.7092763 C20.9776937,23.5927895 21.076032,23.4624474 21.1784891,23.31825 C21.6892304,22.6003421 22.0975145,21.8008421 22.3956185,20.9366842 C22.9763808,20.6724079 23.354803,20.0986974 23.354803,19.4536579 L23.354803,17.8095 C23.354803,17.4148816 23.2060084,17.0320658 22.9424,16.7334079 L22.9424,14.5483816 C22.964539,14.3236184 23.0572138,12.9786316 22.0815538,11.8702105 C21.2351238,10.9080395 19.8614769,10.4210526 17.9987128,10.4210526 C16.1364637,10.4210526 14.7648762,10.9080395 13.9184462,11.8702105 C12.9427862,12.9786316 13.0334016,14.3236184 13.0576,14.5483816 L13.0576,16.7334079 C12.7939916,17.0320658 12.645197,17.4148816 12.645197,17.8095 L12.645197,19.4536579 C12.645197,19.9524474 12.8722503,20.4173684 13.2625143,20.7283421 C13.6388771,22.2175263 14.4291874,23.3403158 14.7046376,23.6990132 L14.7046376,25.0578553 C14.7046376,25.4550395 14.4873666,25.8198947 14.1372617,26.0102763 L10.4632197,28.0085132 C9.26822927,28.6581711 8.52631579,29.9030921 8.52631579,31.2598816 L8.52631579,32.5889605 C8.52631579,34.5374211 14.7226577,35.6714931 17.9987128,35.6714931 C21.2773423,35.6714931 27.4736842,34.5374211 27.4736842,32.5889605 L27.4736842,31.3404474 C27.4736842,29.9292632 26.6854333,28.6602237 25.4199071,28.0285263 Z" id="Fill-1" fill="#4A4A4A"></path>
                </g>
            </g>
        </g>
    </g>
</svg>