<?xml version="1.0" encoding="UTF-8"?>
<svg width="37px" height="37px" viewBox="0 0 37 37" version="1.1" xmlns="http://www.w3.org/2000/svg" xmlns:xlink="http://www.w3.org/1999/xlink">
    <!-- Generator: Sketch 51.2 (57519) - http://www.bohemiancoding.com/sketch -->
    <title>icon ig</title>
    <desc>Created with Sketch.</desc>
    <defs></defs>
    <g id="UI" stroke="none" stroke-width="1" fill="none" fill-rule="evenodd">
        <g id="dtac-Web_Homepage" transform="translate(-1105.000000, -638.000000)">
            <g id="Footer" transform="translate(0.000000, 619.000000)">
                <g id="Social" transform="translate(889.000000, 20.000000)">
                    <g id="Icon-Social" transform="translate(128.000000, 0.000000)">
                        <g id="icon-ig" transform="translate(89.000000, 0.000000)">
                            <path d="M35,17.5004971 C35,27.1649953 27.1647727,35 17.5,35 C7.83522727,35 0,27.1649953 0,17.5004971 C0,7.83500469 7.83522727,0 17.5,0 C27.1647727,0 35,7.83500469 35,17.5004971 Z" id="Stroke-1" stroke="#FFFFFF" stroke-width="2"></path>
                            <g id="Group-7" transform="translate(9.000000, 9.000000)" fill="#FFFFFF">
                                <path d="M14.6606519,5.00800722 C14.442427,5.2252171 14.1409721,5.35006203 13.8324123,5.35006203 C13.5248675,5.35006203 13.2223977,5.2252171 13.0051878,5.00800722 C12.7869629,4.78876734 12.661103,4.48629751 12.661103,4.17976768 C12.661103,3.87019285 12.7869629,3.56772302 13.0051878,3.35051314 C13.2223977,3.13228826 13.5248675,3.00744333 13.8324123,3.00744333 C14.1409721,3.00744333 14.443442,3.13228826 14.6606519,3.35051314 C14.8788767,3.56772302 15.0037217,3.87019285 15.0037217,4.17976768 C15.0037217,4.48629751 14.8788767,4.78876734 14.6606519,5.00800722 M9,13.6385474 C6.44220142,13.6385474 4.36246758,11.5577986 4.36246758,9.001015 C4.36246758,6.44321642 6.44220142,4.36246758 9,4.36246758 C11.5567836,4.36246758 13.6375324,6.44321642 13.6375324,9.001015 C13.6375324,11.5577986 11.5567836,13.6385474 9,13.6385474 M13.0325928,0 L4.96740724,0 C2.22792376,0 0,2.22893876 0,4.96740724 L0,13.0325928 C0,15.7720762 2.22792376,18 4.96740724,18 L13.0325928,18 C15.7710612,18 18,15.7720762 18,13.0325928 L18,4.96740724 C18,2.22893876 15.7710612,0 13.0325928,0" id="Fill-1"></path>
                                <path d="M9,6 C8.21145746,6 7.4368155,6.31978091 6.88079191,6.87718559 C6.32097725,7.43459027 6,8.20939541 6,9.00063198 C6,9.78807668 6.32097725,10.5628818 6.88079191,11.1228144 C7.4368155,11.6789551 8.21145746,12 9,12 C9.79106992,12 10.5631845,11.6789551 11.1217355,11.1228144 C11.6815501,10.5628818 12,9.78807668 12,9.00063198 C12,8.20939541 11.6815501,7.43459027 11.1217355,6.87718559 C10.5657119,6.31978091 9.79106992,6 9,6" id="Fill-4"></path>
                            </g>
                        </g>
                    </g>
                </g>
            </g>
        </g>
    </g>
</svg>